name C:\Users\u0101727\Documents\MyRepositories\upper-imu-dc\Results\main_tracking\Case_71\kinematics.mot
datacolumns 10
datarows 42
range 2.04000000 2.45000000
endheader 
time	clav_prot	clav_elev	scapula_abduction	scapula_elevation	scapula_upward_rot	scapula_winging	plane_elv	shoulder_elv	axial_rot	
          2.04000000	        -20.99437123	          8.97143721	         -8.18989267	          3.58595360	         22.77355996	          0.68214300	          7.70609983	          7.52512133	         23.20009836	
          2.05000000	        -20.94971911	          8.51241188	         -8.22507844	          3.36050324	         22.30598690	          0.81543835	          6.94714531	          7.86370632	         23.53050711	
          2.06000000	        -20.90529505	          8.06001953	         -8.25380077	          3.13651043	         21.85399533	          0.94780983	          6.16185011	          8.20342605	         23.83726008	
          2.07000000	        -20.86048764	          7.61669233	         -8.27423686	          2.91507449	         21.42035167	          1.07823189	          5.35199288	          8.54167204	         24.12046129	
          2.08000000	        -20.81459532	          7.18438961	         -8.28449940	          2.69705943	         21.00735411	          1.20573945	          4.52010402	          8.87604872	         24.38089690	
          2.09000000	        -20.76685963	          6.76451625	         -8.28269468	          2.48304503	         20.61678912	          1.32946659	          3.66922144	          9.20445358	         24.62025852	
          2.10000000	        -20.71652243	          6.35789945	         -8.26701915	          2.27330795	         20.24993478	          1.44867460	          2.80267656	          9.52520054	         24.84125794	
          2.11000000	        -20.66287219	          5.96475765	         -8.23582272	          2.06779292	         19.90758011	          1.56277544	          1.92392674	          9.83707057	         25.04763324	
          2.12000000	        -20.60528127	          5.58471715	         -8.18772085	          1.86613602	         19.58997946	          1.67137413	          1.03647062	         10.13929281	         25.24400326	
          2.13000000	        -20.54323537	          5.21684857	         -8.12167107	          1.66769239	         19.29684862	          1.77429396	          0.14377168	         10.43148186	         25.43569187	
          2.14000000	        -20.47636594	          4.85977649	         -8.03705801	          1.47160882	         19.02739847	          1.87158277	         -0.75083546	         10.71360788	         25.62855157	
          2.15000000	        -20.40446322	          4.51179700	         -7.93372919	          1.27689726	         18.78039119	          1.96350456	         -1.64423673	         10.98594454	         25.82880088	
          2.16000000	        -20.32746767	          4.17098837	         -7.81198096	          1.08250147	         18.55420628	          2.05052103	         -2.53360723	         11.24898734	         26.04286668	
          2.17000000	        -20.24545236	          3.83532830	         -7.67251881	          0.88736462	         18.34692287	          2.13326215	         -3.41646745	         11.50337348	         26.27723770	
          2.18000000	        -20.15860129	          3.50281944	         -7.51641748	          0.69050529	         18.15639348	          2.21249322	         -4.29069914	         11.74980445	         26.53829590	
          2.19000000	        -20.06718969	          3.17160944	         -7.34508234	          0.49109007	         17.98031424	          2.28907838	         -5.15451300	         11.98897395	         26.83211515	
          2.20000000	        -19.97157278	          2.84010237	         -7.16021303	          0.28849647	         17.81630577	          2.36393731	         -6.00638710	         12.22151950	         27.16423942	
          2.21000000	        -19.87217918	          2.50705444	         -6.96376755	          0.08236406	         17.66199277	          2.43799971	         -6.84497203	         12.44798754	         27.53942988	
          2.22000000	        -19.76950974	          2.17164525	         -6.75792889	         -0.12737110	         17.51507697	          2.51216097	         -7.66898844	         12.66881092	         27.96140202	
          2.23000000	        -19.66414010	          1.83352092	         -6.54507009	         -0.34046173	         17.37340427	          2.58724018	         -8.47713034	         12.88429764	         28.43257153	
          2.24000000	        -19.55672542	          1.49280507	         -6.32771630	         -0.55635650	         17.23502342	          2.66394340	         -9.26798560	         13.09463168	         28.95382912	
          2.25000000	        -19.44800484	          1.15007904	         -6.10850523	         -0.77422633	         17.09823070	          2.74283524	        -10.03997620	         13.29988594	         29.52435955	
          2.26000000	        -19.33880183	          0.80633591	         -5.89014314	         -0.99300596	         16.96159845	          2.82432022	        -10.79131386	         13.50004274	         30.14151836	
          2.27000000	        -19.23001709	          0.46291313	         -5.67535375	         -1.21144671	         16.82398724	          2.90863442	        -11.51996848	         13.69501754	         30.80078567	
          2.28000000	        -19.12261117	          0.12141374	         -5.46681764	         -1.42817383	         16.68454429	          2.99584594	        -12.22365391	         13.88467904	         31.49582232	
          2.29000000	        -19.01757631	         -0.21637549	         -5.26710159	         -1.64174298	         16.54269187	          3.08586183	        -12.89984058	         14.06886132	         32.21865362	
          2.30000000	        -18.91589839	         -0.54856405	         -5.07857972	         -1.85069330	         16.39810877	          3.17843986	        -13.54580408	         14.24736748	         32.95999095	
          2.31000000	        -18.81851260	         -0.87323372	         -4.90335181	         -2.05359578	         16.25070606	          3.27320429	        -14.15871323	         14.41996754	         33.70967696	
          2.32000000	        -18.72625776	         -1.18850971	         -4.74316733	         -2.24909699	         16.10059779	          3.36966548	        -14.73575571	         14.58639558	         34.45721631	
          2.33000000	        -18.63983483	         -1.49262774	         -4.59936286	         -2.43595929	         15.94806783	          3.46724354	        -15.27429513	         14.74634920	         35.19234334	
          2.34000000	        -18.55977439	         -1.78399572	         -4.47282003	         -2.61309721	         15.79353485	          3.56529537	        -15.77205219	         14.89949271	         35.90558244	
          2.35000000	        -18.48641675	         -2.06124900	         -4.36394714	         -2.77961046	         15.63751931	          3.66314394	        -16.22729551	         15.04546240	         36.58875700	
          2.36000000	        -18.41990621	         -2.32329663	         -4.27268640	         -2.93481197	         15.48061375	          3.76010852	        -16.63901827	         15.18387307	         37.23539169	
          2.37000000	        -18.36020037	         -2.56935448	         -4.19854817	         -3.07824783	         15.32345691	          3.85553403	        -17.00707302	         15.31432761	         37.84095310	
          2.38000000	        -18.30709340	         -2.79896244	         -4.14067035	         -3.20970700	         15.16671151	          3.94881764	        -17.33224145	         15.43642947	         38.40290239	
          2.39000000	        -18.26025113	         -3.01198239	         -4.09790004	         -3.32921761	         15.01104461	          4.03943078	        -17.61623100	         15.54979647	         38.92057772	
          2.40000000	        -18.21925463	         -3.20857647	         -4.06889089	         -3.43702950	         14.85711126	          4.12693437	        -17.86160173	         15.65407328	         39.39495581	
          2.41000000	        -18.18364751	         -3.38916918	         -4.05220596	         -3.53358570	         14.70554264	          4.21098683	        -18.07163453	         15.74893928	         39.82835032	
          2.42000000	        -18.15298236	         -3.55439843	         -4.04641761	         -3.61948605	         14.55693748	          4.29134510	        -18.25015837	         15.83411150	         40.22409709	
          2.43000000	        -18.12686197	         -3.70505893	         -4.05019969	         -3.69544384	         14.41185130	          4.36786064	        -18.40135864	         15.90934546	         40.58625862	
          2.44000000	        -18.10497158	         -3.84204680	         -4.06240017	         -3.76224360	         14.27078874	          4.44047101	        -18.52957970	         15.97443654	         40.91936106	
          2.45000000	        -18.08710004	         -3.96630941	         -4.08208917	         -3.82070339	         14.13420124	          4.50918793	        -18.63913649	         16.02922800	         41.22815627	
